<svg xmlns="http://www.w3.org/2000/svg">
  <symbol id="three-line" width="18" height="18" viewBox="0 0 16 13" xmlns="http://www.w3.org/2000/svg">
      <line x1="0.75" y1="1.25" x2="15.25" y2="1.25" stroke="black" stroke-width="1.5" stroke-linecap="round"
            stroke-linejoin="round"/>
      <line x1="0.75" y1="6.25" x2="15.25" y2="6.25" stroke="black" stroke-width="1.5" stroke-linecap="round"
            stroke-linejoin="round"/>
      <line x1="0.75" y1="11.25" x2="15.25" y2="11.25" stroke="black" stroke-width="1.5" stroke-linecap="round"
            stroke-linejoin="round"/>
  </symbol>


  <symbol id="close" width="18" height="18" viewBox="0 0 17 13" xmlns="http://www.w3.org/2000/svg">
      <line x1="5.06066" y1="1" x2="15.3137" y2="11.253" stroke="black" stroke-width="1.5" stroke-linecap="round"
            stroke-linejoin="round"/>
      <line x1="5" y1="11.2531" x2="15.253" y2="1.00001" stroke="black" stroke-width="1.5" stroke-linecap="round"
            stroke-linejoin="round"/>
  </symbol>

  <symbol id="search" width="18" height="18" viewBox="0 0 18 18" fill="none" xmlns="http://www.w3.org/2000/svg">
      <path
        d="M8.25 14.25C11.5637 14.25 14.25 11.5637 14.25 8.25C14.25 4.93629 11.5637 2.25 8.25 2.25C4.93629 2.25 2.25 4.93629 2.25 8.25C2.25 11.5637 4.93629 14.25 8.25 14.25Z"
        stroke="#25282B" stroke-width="2" stroke-linecap="round" stroke-linejoin="round"/>
      <path d="M15.75 15.75L12.4875 12.4875" stroke="#25282B" stroke-width="2" stroke-linecap="round"
            stroke-linejoin="round"/>
  </symbol>

  <symbol id="bonus" width="32" height="33" viewBox="0 0 32 33" fill="none" xmlns="http://www.w3.org/2000/svg">
    <rect x="0.612372" y="7.63401" width="16.1406" height="25.6631" rx="3.5" transform="rotate(-15 0.612372 7.63401)" stroke="black"/>
    <rect x="15.7873" y="0.611452" width="16.1406" height="25.6631" rx="3.5" transform="rotate(14.8512 15.7873 0.611452)" fill="white" stroke="black"/>
  </symbol>
</svg>
